<svg width="40" height="40" viewBox="0 0 40 40" fill="none" xmlns="http://www.w3.org/2000/svg">
<path d="M20 40C14.6579 40 9.63531 37.9196 5.85785 34.1422C2.08038 30.3647 0 25.3421 0 20C0 14.6579 2.08038 9.63531 5.85785 5.85785C9.63531 2.08038 14.6579 0 20 0C25.3421 0 30.3647 2.08038 34.1422 5.85785C37.9196 9.63531 40 14.6579 40 20C40 25.3421 37.9196 30.3647 34.1422 34.1422C30.3647 37.9196 25.3421 40 20 40ZM20 3.125C10.6952 3.125 3.125 10.6952 3.125 20C3.125 29.3048 10.6952 36.875 20 36.875C29.3048 36.875 36.875 29.3048 36.875 20C36.875 10.6952 29.3048 3.125 20 3.125ZM28.1473 20L17.3438 9.19647L15.134 11.4062L23.7277 20L15.134 28.5938L17.3438 30.8035L28.1473 20Z" fill="#4A5248"/>
</svg>
