<svg width="220" height="81" viewBox="0 0 220 81" fill="none" xmlns="http://www.w3.org/2000/svg">
<rect width="220" height="81" rx="15" fill="#1976D2"/>
<path d="M88.8 36.96V41.184H93.984C94.4 41.184 94.744 41.32 95.016 41.592C95.304 41.848 95.448 42.184 95.448 42.6C95.448 42.952 95.304 43.264 95.016 43.536C94.744 43.808 94.4 43.944 93.984 43.944H88.8V49.536C88.8 49.952 88.648 50.304 88.344 50.592C88.056 50.864 87.712 51 87.312 51C86.864 51 86.496 50.864 86.208 50.592C85.936 50.32 85.8 49.968 85.8 49.536V35.664C85.8 35.248 85.936 34.904 86.208 34.632C86.496 34.344 86.848 34.2 87.264 34.2H95.064C95.48 34.2 95.824 34.336 96.096 34.608C96.384 34.864 96.528 35.2 96.528 35.616C96.528 35.968 96.384 36.28 96.096 36.552C95.824 36.824 95.48 36.96 95.064 36.96H88.8ZM108.96 37.92C109.376 37.92 109.72 38.056 109.992 38.328C110.264 38.6 110.4 38.952 110.4 39.384V49.536C110.4 49.952 110.264 50.304 109.992 50.592C109.72 50.864 109.376 51 108.96 51C108.544 51 108.2 50.864 107.928 50.592C107.672 50.32 107.536 49.976 107.52 49.56C107.12 50.024 106.576 50.424 105.888 50.76C105.216 51.08 104.504 51.24 103.752 51.24C102.648 51.24 101.648 50.96 100.752 50.4C99.8558 49.824 99.1438 49.032 98.6158 48.024C98.1038 47.016 97.8478 45.872 97.8478 44.592C97.8478 43.312 98.1038 42.168 98.6158 41.16C99.1278 40.136 99.8238 39.344 100.704 38.784C101.6 38.208 102.584 37.92 103.656 37.92C104.424 37.92 105.144 38.064 105.816 38.352C106.488 38.624 107.056 38.976 107.52 39.408V39.384C107.52 38.968 107.656 38.624 107.928 38.352C108.2 38.064 108.544 37.92 108.96 37.92ZM104.112 48.6C105.152 48.6 106 48.224 106.656 47.472C107.312 46.704 107.64 45.744 107.64 44.592C107.64 43.44 107.312 42.48 106.656 41.712C106 40.944 105.152 40.56 104.112 40.56C103.088 40.56 102.248 40.944 101.592 41.712C100.936 42.48 100.608 43.44 100.608 44.592C100.608 45.744 100.928 46.704 101.568 47.472C102.224 48.224 103.072 48.6 104.112 48.6ZM119.113 37.92C120.473 37.92 121.569 38.136 122.401 38.568C123.233 38.984 123.649 39.544 123.649 40.248C123.649 40.6 123.545 40.912 123.337 41.184C123.129 41.44 122.857 41.568 122.521 41.568C122.265 41.568 122.057 41.536 121.897 41.472C121.737 41.392 121.577 41.296 121.417 41.184C121.273 41.056 121.129 40.952 120.985 40.872C120.825 40.792 120.585 40.72 120.265 40.656C119.961 40.592 119.713 40.56 119.521 40.56C118.321 40.56 117.377 40.936 116.689 41.688C116.017 42.424 115.681 43.392 115.681 44.592C115.681 45.744 116.025 46.704 116.713 47.472C117.401 48.224 118.281 48.6 119.353 48.6C120.137 48.6 120.721 48.504 121.105 48.312C121.201 48.264 121.329 48.184 121.489 48.072C121.665 47.944 121.825 47.848 121.969 47.784C122.113 47.72 122.289 47.688 122.497 47.688C122.897 47.688 123.209 47.816 123.433 48.072C123.673 48.328 123.793 48.656 123.793 49.056C123.793 49.44 123.569 49.8 123.121 50.136C122.673 50.472 122.081 50.744 121.345 50.952C120.609 51.144 119.825 51.24 118.993 51.24C117.761 51.24 116.673 50.952 115.729 50.376C114.801 49.8 114.081 49.008 113.569 48C113.057 46.976 112.801 45.84 112.801 44.592C112.801 43.296 113.065 42.144 113.593 41.136C114.137 40.128 114.889 39.344 115.849 38.784C116.809 38.208 117.897 37.92 119.113 37.92ZM137.393 44.28C137.377 44.664 137.225 44.976 136.937 45.216C136.649 45.456 136.313 45.576 135.929 45.576H128.009C128.201 46.52 128.641 47.264 129.329 47.808C130.017 48.336 130.793 48.6 131.657 48.6C132.313 48.6 132.825 48.544 133.193 48.432C133.561 48.304 133.849 48.176 134.057 48.048C134.281 47.904 134.433 47.808 134.513 47.76C134.801 47.616 135.073 47.544 135.329 47.544C135.665 47.544 135.953 47.664 136.193 47.904C136.433 48.144 136.553 48.424 136.553 48.744C136.553 49.176 136.329 49.568 135.881 49.92C135.433 50.288 134.833 50.6 134.081 50.856C133.329 51.112 132.569 51.24 131.801 51.24C130.457 51.24 129.281 50.96 128.273 50.4C127.281 49.84 126.513 49.072 125.969 48.096C125.425 47.104 125.153 45.992 125.153 44.76C125.153 43.384 125.441 42.176 126.017 41.136C126.593 40.096 127.353 39.304 128.297 38.76C129.241 38.2 130.249 37.92 131.321 37.92C132.377 37.92 133.369 38.208 134.297 38.784C135.241 39.36 135.993 40.136 136.553 41.112C137.113 42.088 137.393 43.144 137.393 44.28ZM131.321 40.56C129.465 40.56 128.369 41.432 128.033 43.176H134.321V43.008C134.257 42.336 133.929 41.76 133.337 41.28C132.745 40.8 132.073 40.56 131.321 40.56ZM146.442 37.92C147.546 37.92 148.546 38.208 149.442 38.784C150.338 39.344 151.042 40.128 151.554 41.136C152.082 42.144 152.346 43.288 152.346 44.568C152.346 45.848 152.09 47 151.578 48.024C151.066 49.032 150.362 49.824 149.466 50.4C148.586 50.96 147.61 51.24 146.538 51.24C145.77 51.24 145.042 51.088 144.354 50.784C143.682 50.464 143.122 50.08 142.674 49.632V49.776C142.674 50.192 142.538 50.544 142.266 50.832C141.994 51.104 141.65 51.24 141.234 51.24C140.818 51.24 140.474 51.104 140.202 50.832C139.93 50.56 139.794 50.208 139.794 49.776V34.704C139.794 34.288 139.93 33.944 140.202 33.672C140.474 33.384 140.818 33.24 141.234 33.24C141.65 33.24 141.994 33.384 142.266 33.672C142.538 33.944 142.674 34.288 142.674 34.704V39.72C143.058 39.24 143.594 38.824 144.282 38.472C144.97 38.104 145.69 37.92 146.442 37.92ZM146.082 48.6C147.106 48.6 147.946 48.216 148.602 47.448C149.258 46.68 149.586 45.72 149.586 44.568C149.586 43.416 149.258 42.464 148.602 41.712C147.962 40.944 147.122 40.56 146.082 40.56C145.042 40.56 144.194 40.944 143.538 41.712C142.882 42.464 142.554 43.416 142.554 44.568C142.554 45.72 142.882 46.68 143.538 47.448C144.194 48.216 145.042 48.6 146.082 48.6ZM167.084 44.592C167.084 45.872 166.796 47.024 166.22 48.048C165.644 49.056 164.852 49.84 163.844 50.4C162.852 50.96 161.756 51.24 160.556 51.24C159.34 51.24 158.236 50.96 157.244 50.4C156.252 49.84 155.468 49.056 154.892 48.048C154.316 47.024 154.028 45.872 154.028 44.592C154.028 43.312 154.316 42.168 154.892 41.16C155.468 40.136 156.252 39.344 157.244 38.784C158.236 38.208 159.34 37.92 160.556 37.92C161.756 37.92 162.852 38.208 163.844 38.784C164.852 39.344 165.644 40.136 166.22 41.16C166.796 42.168 167.084 43.312 167.084 44.592ZM164.204 44.592C164.204 43.808 164.036 43.112 163.7 42.504C163.38 41.88 162.94 41.4 162.38 41.064C161.836 40.728 161.228 40.56 160.556 40.56C159.884 40.56 159.268 40.728 158.708 41.064C158.164 41.4 157.724 41.88 157.388 42.504C157.068 43.112 156.908 43.808 156.908 44.592C156.908 45.376 157.068 46.072 157.388 46.68C157.724 47.288 158.164 47.76 158.708 48.096C159.268 48.432 159.884 48.6 160.556 48.6C161.228 48.6 161.836 48.432 162.38 48.096C162.94 47.76 163.38 47.288 163.7 46.68C164.036 46.072 164.204 45.376 164.204 44.592ZM181.826 44.592C181.826 45.872 181.538 47.024 180.962 48.048C180.386 49.056 179.594 49.84 178.586 50.4C177.594 50.96 176.498 51.24 175.298 51.24C174.082 51.24 172.978 50.96 171.986 50.4C170.994 49.84 170.21 49.056 169.634 48.048C169.058 47.024 168.77 45.872 168.77 44.592C168.77 43.312 169.058 42.168 169.634 41.16C170.21 40.136 170.994 39.344 171.986 38.784C172.978 38.208 174.082 37.92 175.298 37.92C176.498 37.92 177.594 38.208 178.586 38.784C179.594 39.344 180.386 40.136 180.962 41.16C181.538 42.168 181.826 43.312 181.826 44.592ZM178.946 44.592C178.946 43.808 178.778 43.112 178.442 42.504C178.122 41.88 177.682 41.4 177.122 41.064C176.578 40.728 175.97 40.56 175.298 40.56C174.626 40.56 174.01 40.728 173.45 41.064C172.906 41.4 172.466 41.88 172.13 42.504C171.81 43.112 171.65 43.808 171.65 44.592C171.65 45.376 171.81 46.072 172.13 46.68C172.466 47.288 172.906 47.76 173.45 48.096C174.01 48.432 174.626 48.6 175.298 48.6C175.97 48.6 176.578 48.432 177.122 48.096C177.682 47.76 178.122 47.288 178.442 46.68C178.778 46.072 178.946 45.376 178.946 44.592ZM194.912 48.48C195.216 48.8 195.368 49.16 195.368 49.56C195.368 49.96 195.208 50.296 194.888 50.568C194.584 50.84 194.256 50.976 193.904 50.976C193.488 50.976 193.136 50.816 192.848 50.496L188.528 45.936L187.352 47.016V49.536C187.352 49.952 187.216 50.304 186.944 50.592C186.672 50.864 186.328 51 185.912 51C185.496 51 185.152 50.864 184.88 50.592C184.608 50.304 184.472 49.952 184.472 49.536V34.704C184.472 34.288 184.608 33.944 184.88 33.672C185.152 33.384 185.496 33.24 185.912 33.24C186.328 33.24 186.672 33.384 186.944 33.672C187.216 33.944 187.352 34.288 187.352 34.704V43.584L192.488 38.616C192.792 38.312 193.144 38.16 193.544 38.16C193.896 38.16 194.208 38.312 194.48 38.616C194.768 38.904 194.912 39.2 194.912 39.504C194.912 39.888 194.72 40.248 194.336 40.584L190.712 43.92L194.912 48.48Z" fill="white"/>
<path d="M44 65.9836C57.8071 65.9836 69 54.7981 69 41C69 27.202 57.8071 16.0164 44 16.0164C30.1929 16.0164 19 27.202 19 41C19 54.7981 30.1929 65.9836 44 65.9836Z" fill="white"/>
<path d="M44 61.7977C55.494 61.7977 64.8117 52.4862 64.8117 41C64.8117 29.5138 55.494 20.2024 44 20.2024C32.506 20.2024 23.1883 29.5138 23.1883 41C23.1883 52.4862 32.506 61.7977 44 61.7977Z" fill="white"/>
<path d="M44 59.5259C33.7782 59.5259 25.4617 51.2149 25.4617 41.0001C25.4617 30.7852 33.7782 22.4743 44 22.4743C54.2219 22.4743 62.5383 30.7852 62.5383 41.0001C62.5383 51.2149 54.2219 59.5259 44 59.5259ZM44 22.8649C33.993 22.8649 25.8524 31.0001 25.8524 41.0001C25.8524 51.0001 33.993 59.1352 44 59.1352C54.0071 59.1352 62.1477 51.0001 62.1477 41.0001C62.1477 31.0001 54.0071 22.8649 44 22.8649Z" fill="white"/>
<path d="M40.4157 52.1226H45.0118V40.9984H48.0774L48.4837 37.1656H45.0118L45.0165 35.2469C45.0165 34.2476 45.1118 33.7117 46.5454 33.7117H48.4618V29.8773H45.3946C41.7102 29.8773 40.4149 31.7375 40.4149 34.8648V37.1664H38.1188V41H40.4149L40.4157 52.1226Z" fill="#1976D2"/>
</svg>
