<svg width="448" height="317" viewBox="0 0 448 317" fill="none" xmlns="http://www.w3.org/2000/svg">
<g clip-path="url(#clip0)">
<path d="M129.31 8.62069V30.1724C129.31 32.5529 127.381 34.4828 125 34.4828C122.62 34.4828 120.69 32.5529 120.69 30.1724V8.62069H129.31Z" fill="#95A5A5"/>
<path d="M101.293 17.2414C114.386 17.2414 125 13.3818 125 8.62069C125 3.85961 114.386 0 101.293 0C88.2001 0 77.5862 3.85961 77.5862 8.62069C77.5862 13.3818 88.2001 17.2414 101.293 17.2414Z" fill="#4A5248"/>
<path d="M148.707 17.2414C161.8 17.2414 172.414 13.3818 172.414 8.62069C172.414 3.85961 161.8 0 148.707 0C135.614 0 125 3.85961 125 8.62069C125 13.3818 135.614 17.2414 148.707 17.2414Z" fill="#FAFF03"/>
<path d="M133.621 30.1724H116.379C102.656 30.1541 89.4887 35.5977 79.7846 45.3018C70.0805 55.0059 64.6369 68.1728 64.6552 81.8965L94.8276 90.5172H155.172L185.345 81.8965C185.345 53.3301 162.187 30.1724 133.621 30.1724Z" fill="#FAFF03"/>
<path d="M193.965 211.207C210.629 211.207 224.138 224.716 224.138 241.379C224.126 246.135 220.273 249.988 215.517 250H34.4827C29.7276 249.986 25.8763 246.134 25.8621 241.379C25.8621 224.716 39.3707 211.207 56.0345 211.207H193.965Z" fill="#FAFF03" fill-opacity="0.28"/>
<path d="M187.97 211.207C203.198 211.207 215.517 241.379 215.517 241.379C215.691 245.921 212.185 249.761 207.647 250H42.3534C37.8103 249.77 34.2997 245.925 34.4827 241.379C34.4827 224.948 46.5991 211.207 62.0301 211.207H187.97Z" fill="#FAFF03"/>
<path d="M70.7759 134.828C62.1347 130.922 55.5445 123.549 52.6293 114.526C52.6293 114.526 48.9655 93.319 56.3362 90.9914C59.1661 90.1722 62.1966 90.4018 64.8707 91.6379C65.1724 100.216 74.569 112.716 76.5518 121.25C76.823 122.519 77.1684 123.771 77.5862 125C78.4483 127.629 70.388 130.991 70.7759 134.828Z" fill="#F9C795"/>
<path d="M197.371 114.526C194.456 123.549 187.865 130.922 179.224 134.828C179.612 130.991 172.845 127.629 173.707 125C175.228 119.633 176.238 114.135 176.724 108.578C177.284 102.629 184.957 96.5086 185.129 91.6379C187.803 90.4018 190.834 90.1722 193.664 90.9914C201.034 93.319 197.371 114.526 197.371 114.526Z" fill="#F9C795"/>
<path d="M125 30.1724C108.319 30.1724 94.8276 53.319 94.8276 81.8965H64.6551C64.6368 68.1728 70.0804 55.0059 79.7846 45.3018C89.4887 35.5977 102.656 30.1541 116.379 30.1724L125 30.1724Z" fill="#515151"/>
<path d="M185.345 81.8966H155.172C155.172 53.319 141.681 30.1724 125 30.1724H133.621C162.187 30.1724 185.345 53.3301 185.345 81.8966Z" fill="#515151"/>
<path d="M155.172 177.026C155.172 208.06 155.388 207.534 154.655 211.207C153.146 218.534 147.371 232.759 125 232.759C102.629 232.759 96.8534 218.534 95.3448 211.207C94.612 207.539 94.8275 209.591 94.8275 177.026C105.56 188.319 111.034 193.966 125 193.966C138.965 193.966 144.44 188.319 155.172 177.026Z" fill="#F9C795"/>
<path d="M184.052 108.578C182.224 125.022 180.332 123.879 179.224 134.828C177.586 149.698 177.5 171.638 163.793 185.345C146.625 202.513 142.28 211.207 125 211.207C107.72 211.207 103.401 202.539 86.2069 185.345C72.5 171.638 72.4138 149.698 70.7759 134.828C70.3336 130.21 69.3795 125.656 67.931 121.25C77.2888 106.772 89.1853 99.1379 90.6465 99.1379C90.765 100.968 91.0389 102.785 91.4655 104.569C92.3707 108.147 97.4698 106.802 99.1379 103.461C107.759 86.2198 142.241 81.9095 142.241 81.9095C152.345 83.556 168.103 81.8966 184.052 108.578Z" fill="#FDD7AD"/>
<path d="M142.241 81.8966C124.925 85.7936 109.619 95.8598 99.181 110.216C98.2268 111.601 96.5533 112.305 94.8954 112.018C93.2375 111.731 91.8982 110.505 91.4655 108.879C91.0389 107.095 90.765 105.279 90.6465 103.448H90.5172C81.474 107.157 73.6499 113.324 67.931 121.25C65.6328 108.261 64.5362 95.0871 64.6552 81.8966H142.241Z" fill="#A56A43"/>
<path d="M185.345 81.8966C185.345 88.3276 184.94 99.1681 184.052 108.578C173.669 95.0627 158.872 85.6203 142.241 81.8966H185.345Z" fill="#A56A43"/>
</g>
<g clip-path="url(#clip1)">
<path d="M383.345 269.586C400.009 269.586 413.517 283.095 413.517 299.759V308.379C413.517 313.14 409.658 317 404.897 317H241.103C236.342 317 232.483 313.14 232.483 308.379V299.759C232.483 283.095 245.991 269.586 262.655 269.586H383.345Z" fill="#4A5248" fill-opacity="0.87"/>
<path d="M377.599 269.586C392.672 269.586 404.897 283.095 404.897 299.759V308.379C405.111 312.91 401.625 316.763 397.095 317H248.905C244.375 316.763 240.888 312.91 241.103 308.379V299.759C241.103 283.095 253.328 269.586 268.401 269.586H377.599Z" fill="#515151"/>
<path d="M348.862 250.664V269.586C348.862 269.586 348.862 291.138 323 291.138C297.138 291.138 297.138 269.586 297.138 269.586V250.664H348.862Z" fill="#F9C795"/>
<path d="M413.517 217.862C413.378 229.453 404.095 238.857 392.506 239.147C380.918 239.437 371.176 230.509 370.457 218.94H275.543C275.049 228.932 267.743 237.27 257.902 239.073C248.061 240.877 238.273 235.67 234.268 226.502C230.263 217.334 233.094 206.616 241.103 200.621C243.648 198.695 246.595 197.369 249.724 196.741V144.586C249.72 108.066 276.619 77.1216 312.785 72.0431H333.216C369.386 77.1128 396.29 108.062 396.276 144.586V196.741C406.312 198.79 413.519 207.619 413.517 217.862Z" fill="#CB8252"/>
<path d="M378.086 148.935C378.086 148.935 382.052 140.711 391.147 146.983C399.897 153.017 398.129 187.651 380.5 187.69C380.5 191.058 379.962 194.405 378.905 197.603C375.162 208.842 370.461 219.738 364.853 230.172C342.177 271.302 303.853 271.353 281.147 230.172C275.539 219.738 270.838 208.842 267.095 197.603C266.038 194.405 265.5 191.058 265.5 187.69C247.871 187.651 246.103 153.004 254.853 146.983C263.948 140.711 267.914 148.935 267.914 148.935C267.914 148.935 290.478 148.905 304.724 137.203C305.925 136.152 307.608 135.85 309.099 136.419C310.59 136.988 311.645 138.334 311.841 139.918C311.953 140.954 311.999 141.997 311.978 143.039C311.904 144.391 312.464 145.701 313.494 146.581C314.523 147.461 315.904 147.81 317.228 147.526C327.165 145.681 336.594 141.74 344.888 135.966C345.811 135.147 347.041 134.764 348.265 134.912C349.49 135.061 350.592 135.727 351.293 136.741C354.629 141.832 362.134 148.897 378.086 148.935Z" fill="#FDD7AD"/>
<path d="M249.724 196.741V213.552C249.724 215.932 247.794 217.862 245.414 217.862C243.033 217.862 241.104 215.932 241.104 213.552V200.621C243.648 198.695 246.595 197.369 249.724 196.741Z" fill="#A56A43"/>
<path d="M404.897 200.621V213.552C404.897 215.932 402.967 217.862 400.586 217.862C398.206 217.862 396.276 215.932 396.276 213.552V196.741C399.405 197.369 402.352 198.695 404.897 200.621Z" fill="#A56A43"/>
<path d="M369.677 115.655C372.129 119.724 368.017 124.741 364.048 122.466C338.561 108.125 307.439 108.125 281.953 122.466C277.983 124.741 273.871 119.724 276.323 115.655C282.668 105.116 295.879 92.8621 323 92.8621C350.121 92.8621 363.332 105.116 369.677 115.655Z" fill="#FAFF03"/>
<path d="M323 92.8621C330.142 92.8621 335.931 87.0726 335.931 79.931C335.931 72.7894 330.142 67 323 67C315.859 67 310.069 72.7894 310.069 79.931C310.069 87.0726 315.859 92.8621 323 92.8621Z" fill="#FAFF03"/>
</g>
<defs>
<clipPath id="clip0">
<rect width="250" height="250" fill="white"/>
</clipPath>
<clipPath id="clip1">
<rect x="198" y="67" width="250" height="250" fill="white"/>
</clipPath>
</defs>
</svg>
