<svg width="220" height="81" viewBox="0 0 220 81" fill="none" xmlns="http://www.w3.org/2000/svg">
<rect width="220" height="81" rx="15" fill="white"/>
<rect x="0.5" y="0.5" width="219" height="80" rx="14.5" stroke="black" stroke-opacity="0.64"/>
<path d="M116.184 41.928C116.6 41.928 116.944 42.072 117.216 42.36C117.488 42.632 117.624 42.976 117.624 43.392V48.48C117.624 49.04 117.376 49.472 116.88 49.776C115.312 50.752 113.592 51.24 111.72 51.24C110.136 51.24 108.672 50.856 107.328 50.088C105.984 49.304 104.92 48.256 104.136 46.944C103.352 45.616 102.96 44.168 102.96 42.6C102.96 41.032 103.352 39.592 104.136 38.28C104.92 36.952 105.984 35.904 107.328 35.136C108.672 34.352 110.136 33.96 111.72 33.96C113.304 33.96 114.68 34.28 115.848 34.92C116.088 35.048 116.264 35.216 116.376 35.424C116.504 35.632 116.568 35.856 116.568 36.096C116.568 36.496 116.432 36.848 116.16 37.152C115.904 37.44 115.584 37.584 115.2 37.584C114.96 37.584 114.696 37.52 114.408 37.392C113.544 37.024 112.648 36.84 111.72 36.84C110.696 36.84 109.752 37.104 108.888 37.632C108.024 38.144 107.336 38.84 106.824 39.72C106.328 40.6 106.08 41.56 106.08 42.6C106.08 43.64 106.328 44.6 106.824 45.48C107.336 46.36 108.024 47.064 108.888 47.592C109.752 48.104 110.696 48.36 111.72 48.36C112.168 48.36 112.648 48.32 113.16 48.24C113.672 48.16 114.12 48.056 114.504 47.928V44.808H112.248C111.832 44.808 111.48 44.672 111.192 44.4C110.92 44.128 110.784 43.784 110.784 43.368C110.784 42.952 110.92 42.608 111.192 42.336C111.48 42.064 111.832 41.928 112.248 41.928H116.184ZM132.607 44.592C132.607 45.872 132.319 47.024 131.743 48.048C131.167 49.056 130.375 49.84 129.367 50.4C128.375 50.96 127.279 51.24 126.079 51.24C124.863 51.24 123.759 50.96 122.767 50.4C121.775 49.84 120.991 49.056 120.415 48.048C119.839 47.024 119.551 45.872 119.551 44.592C119.551 43.312 119.839 42.168 120.415 41.16C120.991 40.136 121.775 39.344 122.767 38.784C123.759 38.208 124.863 37.92 126.079 37.92C127.279 37.92 128.375 38.208 129.367 38.784C130.375 39.344 131.167 40.136 131.743 41.16C132.319 42.168 132.607 43.312 132.607 44.592ZM129.727 44.592C129.727 43.808 129.559 43.112 129.223 42.504C128.903 41.88 128.463 41.4 127.903 41.064C127.359 40.728 126.751 40.56 126.079 40.56C125.407 40.56 124.791 40.728 124.231 41.064C123.687 41.4 123.247 41.88 122.911 42.504C122.591 43.112 122.431 43.808 122.431 44.592C122.431 45.376 122.591 46.072 122.911 46.68C123.247 47.288 123.687 47.76 124.231 48.096C124.791 48.432 125.407 48.6 126.079 48.6C126.751 48.6 127.359 48.432 127.903 48.096C128.463 47.76 128.903 47.288 129.223 46.68C129.559 46.072 129.727 45.376 129.727 44.592ZM147.349 44.592C147.349 45.872 147.061 47.024 146.485 48.048C145.909 49.056 145.117 49.84 144.109 50.4C143.117 50.96 142.021 51.24 140.821 51.24C139.605 51.24 138.501 50.96 137.509 50.4C136.517 49.84 135.733 49.056 135.157 48.048C134.581 47.024 134.293 45.872 134.293 44.592C134.293 43.312 134.581 42.168 135.157 41.16C135.733 40.136 136.517 39.344 137.509 38.784C138.501 38.208 139.605 37.92 140.821 37.92C142.021 37.92 143.117 38.208 144.109 38.784C145.117 39.344 145.909 40.136 146.485 41.16C147.061 42.168 147.349 43.312 147.349 44.592ZM144.469 44.592C144.469 43.808 144.301 43.112 143.965 42.504C143.645 41.88 143.205 41.4 142.645 41.064C142.101 40.728 141.493 40.56 140.821 40.56C140.149 40.56 139.533 40.728 138.973 41.064C138.429 41.4 137.989 41.88 137.653 42.504C137.333 43.112 137.173 43.808 137.173 44.592C137.173 45.376 137.333 46.072 137.653 46.68C137.989 47.288 138.429 47.76 138.973 48.096C139.533 48.432 140.149 48.6 140.821 48.6C141.493 48.6 142.101 48.432 142.645 48.096C143.205 47.76 143.645 47.288 143.965 46.68C144.301 46.072 144.469 45.376 144.469 44.592ZM160.387 37.92C160.803 37.92 161.147 38.056 161.419 38.328C161.691 38.6 161.827 38.952 161.827 39.384V50.064C161.827 52.016 161.219 53.456 160.003 54.384C158.803 55.328 157.275 55.8 155.419 55.8C154.939 55.8 154.275 55.72 153.427 55.56C152.595 55.4 152.003 55.24 151.651 55.08C150.867 54.744 150.475 54.28 150.475 53.688C150.475 53.576 150.499 53.448 150.547 53.304C150.643 52.952 150.803 52.68 151.027 52.488C151.267 52.312 151.523 52.224 151.795 52.224C151.955 52.224 152.107 52.248 152.251 52.296C152.315 52.312 152.707 52.456 153.427 52.728C154.163 53.016 154.827 53.16 155.419 53.16C156.603 53.16 157.483 52.92 158.059 52.44C158.651 51.976 158.947 51.312 158.947 50.448V49.296C158.595 49.792 158.059 50.24 157.339 50.64C156.635 51.04 155.875 51.24 155.059 51.24C153.939 51.24 152.915 50.96 151.987 50.4C151.075 49.824 150.355 49.032 149.827 48.024C149.299 47.016 149.035 45.872 149.035 44.592C149.035 43.312 149.291 42.168 149.803 41.16C150.331 40.136 151.043 39.344 151.939 38.784C152.851 38.208 153.859 37.92 154.963 37.92C155.779 37.92 156.539 38.088 157.243 38.424C157.947 38.76 158.515 39.168 158.947 39.648V39.384C158.947 38.968 159.083 38.624 159.355 38.352C159.627 38.064 159.971 37.92 160.387 37.92ZM155.419 48.6C156.491 48.6 157.363 48.224 158.035 47.472C158.723 46.704 159.067 45.744 159.067 44.592C159.067 43.44 158.723 42.48 158.035 41.712C157.363 40.944 156.491 40.56 155.419 40.56C154.347 40.56 153.475 40.944 152.803 41.712C152.131 42.48 151.795 43.44 151.795 44.592C151.795 45.744 152.131 46.704 152.803 47.472C153.475 48.224 154.347 48.6 155.419 48.6ZM168.063 49.536C168.063 49.952 167.919 50.304 167.631 50.592C167.359 50.864 167.015 51 166.599 51C166.199 51 165.863 50.864 165.591 50.592C165.319 50.304 165.183 49.952 165.183 49.536V34.704C165.183 34.288 165.319 33.944 165.591 33.672C165.879 33.384 166.231 33.24 166.647 33.24C167.047 33.24 167.383 33.384 167.655 33.672C167.927 33.944 168.063 34.288 168.063 34.704V49.536ZM182.697 44.28C182.681 44.664 182.529 44.976 182.241 45.216C181.953 45.456 181.617 45.576 181.233 45.576H173.313C173.505 46.52 173.945 47.264 174.633 47.808C175.321 48.336 176.097 48.6 176.961 48.6C177.617 48.6 178.129 48.544 178.497 48.432C178.865 48.304 179.153 48.176 179.361 48.048C179.585 47.904 179.737 47.808 179.817 47.76C180.105 47.616 180.377 47.544 180.633 47.544C180.969 47.544 181.257 47.664 181.497 47.904C181.737 48.144 181.857 48.424 181.857 48.744C181.857 49.176 181.633 49.568 181.185 49.92C180.737 50.288 180.137 50.6 179.385 50.856C178.633 51.112 177.873 51.24 177.105 51.24C175.761 51.24 174.585 50.96 173.577 50.4C172.585 49.84 171.817 49.072 171.273 48.096C170.729 47.104 170.457 45.992 170.457 44.76C170.457 43.384 170.745 42.176 171.321 41.136C171.897 40.096 172.657 39.304 173.601 38.76C174.545 38.2 175.553 37.92 176.625 37.92C177.681 37.92 178.673 38.208 179.601 38.784C180.545 39.36 181.297 40.136 181.857 41.112C182.417 42.088 182.697 43.144 182.697 44.28ZM176.625 40.56C174.769 40.56 173.673 41.432 173.337 43.176H179.625V43.008C179.561 42.336 179.233 41.76 178.641 41.28C178.049 40.8 177.377 40.56 176.625 40.56Z" fill="#4A5248"/>
<path d="M29.7188 41.9999C29.7188 39.5227 30.4013 37.2021 31.587 35.2151V26.7865H23.1585C19.8133 31.1311 18 36.4259 18 41.9999C18 47.5739 19.8133 52.8688 23.1585 57.2133H31.587V48.7848C30.4013 46.7978 29.7188 44.4772 29.7188 41.9999Z" fill="#FBBD00"/>
<path d="M43 55.2813L37.1406 61.1407L43 67.0001C48.5741 67.0001 53.8688 65.1868 58.2134 61.8416V53.422H49.7938C47.7895 54.6121 45.4591 55.2813 43 55.2813Z" fill="#0F9D58"/>
<path d="M31.587 48.7848L23.1585 57.2133C23.8208 58.0735 24.542 58.8972 25.3224 59.6777C30.0442 64.3995 36.3223 66.9999 43 66.9999V55.2812C38.1539 55.2812 33.9065 52.6718 31.587 48.7848Z" fill="#31AA52"/>
<path d="M68 42C68 40.479 67.8623 38.9552 67.5906 37.471L67.3708 36.27H43V47.9887H54.8605C53.7088 50.2798 51.9379 52.1491 49.7937 53.4221L58.2133 61.8416C59.0734 61.1793 59.8972 60.4581 60.6776 59.6778C65.3995 54.9558 68 48.6778 68 42Z" fill="#3C79E6"/>
<path d="M52.3913 32.6087L53.4271 33.6444L61.7135 25.3581L60.6777 24.3224C55.9559 19.6005 49.6778 17 43 17L37.1406 22.8594L43 28.7188C46.5475 28.7188 49.8827 30.1002 52.3913 32.6087Z" fill="#CF2D48"/>
<path d="M43 28.7188V17C36.3222 17 30.0442 19.6005 25.3222 24.3223C24.5419 25.1026 23.8207 25.9264 23.1584 26.7866L31.5869 35.2151C33.9065 31.3281 38.1539 28.7188 43 28.7188Z" fill="#EB4132"/>
</svg>
