<svg width="415" height="267" viewBox="0 0 415 267" fill="none" xmlns="http://www.w3.org/2000/svg">
<g clip-path="url(#clip0)">
<path d="M394.631 230.7L342.931 225.276L339.138 192.124C352.308 179.228 350.745 167.943 350.263 155.369C357.643 151.414 363.008 144.526 365.037 136.403C365.908 131.248 365.974 125.989 365.234 120.814C370.431 103.783 371.228 90.6965 365.576 74.8034C355.57 47 304.507 50.7931 304.507 50.7931C259.748 50.7931 268.271 64.9451 260.575 65.662C236.489 67.7103 238.044 101.659 244.986 119.714C244.156 125.245 244.144 130.868 244.948 136.403C246.964 144.527 252.325 151.417 259.703 155.369C259.221 167.943 257.692 179.228 270.862 192.124L267.069 225.276L215.369 230.7C203.794 231.941 195.013 241.703 195 253.345V263.207C195 265.302 196.698 267 198.793 267H411.207C413.302 267 415 265.302 415 263.207V253.345C414.987 241.703 406.206 231.941 394.631 230.7Z" fill="#4A5248" fill-opacity="0.87"/>
<path d="M241.2 119.714C234.259 101.659 232.711 67.8052 256.79 65.6621C258.346 65.5225 259.728 64.6105 260.469 63.2345C263.249 58.2541 272.797 47 304.507 47C304.507 47 359.355 47 369.369 74.8034C375.021 90.6966 374.224 103.783 369.028 120.814C369.028 121.193 370.621 120.867 241.2 119.714Z" fill="#A56A43"/>
<path d="M357.834 117.704C360.071 115.617 363.237 114.854 366.179 115.693C371.444 117.76 368.834 136.404 368.834 136.404C366.817 144.527 361.457 151.417 354.079 155.369H255.917C248.539 151.417 243.179 144.527 241.162 136.404C241.162 136.404 238.552 117.76 243.817 115.693C246.759 114.854 249.925 115.617 252.162 117.704H357.834Z" fill="#F9C795"/>
<path d="M342.931 192.124V225.276C342.931 225.276 339.138 236.655 305 236.655C270.862 236.655 267.069 225.276 267.069 225.276V192.124H342.931Z" fill="#F9C795"/>
<path d="M342.931 226.276C342.931 226.276 342.931 252.828 305 252.828C267.069 252.828 267.069 226.276 267.069 226.276C267.069 226.276 270.862 237.655 305 237.655C339.138 237.655 342.931 226.276 342.931 226.276Z" fill="#4A5248" fill-opacity="0.83"/>
<path d="M403.621 252.093V262.866C403.802 264.944 402.282 266.784 400.207 267H209.793C207.718 266.784 206.198 264.944 206.379 262.866V252.093C206.147 243.686 209.954 235.676 216.621 230.548L267.069 225.276C267.069 225.276 267.069 251.828 305 251.828C342.931 251.828 342.931 225.276 342.931 225.276L393.379 230.548C400.046 235.676 403.854 243.686 403.621 252.093Z" fill="#515151"/>
<path d="M349.937 95.457C354.894 97.4939 358.123 102.331 358.103 107.69C358.028 133.737 353.958 138.615 353.958 150.859C353.958 165.398 357.724 177.862 342.662 192.401C327.599 206.94 327.596 221.483 312.533 221.483H297.467C282.405 221.483 282.405 206.944 267.342 192.401C252.28 177.858 256.046 165.398 256.046 150.859C256.046 138.615 251.976 133.737 251.9 107.69C251.88 102.332 255.108 97.4951 260.063 95.457C282.029 86.4257 327.945 86.4143 349.937 95.457Z" fill="#FDD7AD"/>
</g>
<path d="M199.631 183.7L140.345 178.276L136.552 163.103C151.156 163.249 165.38 158.45 176.91 149.486C178 148.584 178.497 147.152 178.2 145.769L167.276 95.0931C168.543 92.9912 169.479 90.7061 170.049 88.3186C170.049 88.3186 172.628 70.7148 167.435 68.7803C167.268 68.7196 167.056 68.6817 166.897 68.6324V57.3517C166.897 25.9286 141.423 0.455185 110 0.455185C78.5769 0.455185 53.1034 25.9286 53.1034 57.3517V68.6324C52.9252 68.6817 52.7241 68.7196 52.5648 68.7803C47.3721 70.7148 49.9514 88.3186 49.9514 88.3186C50.526 90.6974 51.4611 92.9743 52.7241 95.0703L41.8114 145.769C41.5148 147.152 42.0119 148.584 43.101 149.486C54.6286 158.447 68.848 163.246 83.4483 163.103L79.6552 178.276L20.369 183.7C8.79394 184.941 0.0130247 194.703 0 206.345V216.207C0 218.302 1.69823 220 3.7931 220H216.207C218.302 220 220 218.302 220 216.207V206.345C219.987 194.703 211.206 184.941 199.631 183.7Z" fill="#FAFF03" fill-opacity="0.35"/>
<path d="M171.069 95.0931L181.993 145.769C182.297 147.152 181.799 148.589 180.704 149.486C169.182 158.466 154.952 163.267 140.345 163.103H79.6554C65.0485 163.267 50.8189 158.466 39.2968 149.486C38.2017 148.589 37.7034 147.152 38.0072 145.769L48.9313 95.0931L49.3106 57.3517C49.1793 42.2717 55.0441 27.7572 65.6148 17.0016C76.1855 6.2459 90.5961 0.130214 105.676 0H114.324C129.406 0.126198 143.819 6.24061 154.39 16.9972C164.962 27.7537 170.825 42.2705 170.69 57.3517L171.069 95.0931Z" fill="#A56A43"/>
<path d="M60.6896 106.207C53.4996 102.61 48.2053 96.0931 46.1583 88.3186C46.1583 88.3186 43.5865 70.7338 48.7717 68.7804C53.0659 67.5917 57.6644 68.9001 60.6896 72.1714H159.31C162.336 68.9001 166.934 67.5917 171.228 68.7804C176.413 70.7338 173.842 88.3186 173.842 88.3186C171.795 96.0931 166.5 102.61 159.31 106.207H60.6896Z" fill="#F9C795"/>
<path d="M140.345 151.421V178.276C140.345 178.276 137.31 189.655 110 189.655C82.6898 189.655 79.6553 178.276 79.6553 178.276V151.421H140.345Z" fill="#F9C795"/>
<path d="M140.345 178.276C140.345 178.276 140.345 204.828 110 204.828C79.6553 204.828 79.6553 178.276 79.6553 178.276C79.6553 178.276 82.6898 189.655 110 189.655C137.31 189.655 140.345 178.276 140.345 178.276Z" fill="#FAFF03" fill-opacity="0.08"/>
<path d="M208.621 205.093V215.866C208.802 217.944 207.282 219.784 205.207 220H14.7932C12.7177 219.784 11.1984 217.944 11.3794 215.866V205.093C11.1382 196.695 14.9488 188.693 21.6207 183.586L79.6552 178.276C79.6552 178.276 79.6552 204.828 110 204.828C140.345 204.828 140.345 178.276 140.345 178.276L198.379 183.586C205.051 188.693 208.862 196.695 208.621 205.093Z" fill="#FAFF03"/>
<path d="M106.984 35.2759C108.715 33.7746 111.285 33.7746 113.015 35.2759C126.564 46.7234 152.255 62.1804 157.292 66.3224C158.636 67.6184 159.369 69.4219 159.31 71.2876C159.31 104.633 159.758 105.634 157.922 111.684C154.74 122.112 150.708 132.261 145.864 142.029C126.428 180.374 93.572 180.374 74.1361 142.029C69.2924 132.261 65.2594 122.112 62.0778 111.684C60.113 105.206 60.6896 102.3 60.6896 71.2876C60.6279 69.418 61.3611 67.6097 62.7075 66.311C67.7448 62.169 93.4355 46.7121 106.984 35.2759Z" fill="#FDD7AD"/>
<defs>
<clipPath id="clip0">
<rect x="195" y="47" width="220" height="220" fill="white"/>
</clipPath>
</defs>
</svg>
